<?xml version="1.0" standalone="no"?>
<!DOCTYPE svg PUBLIC "-//W3C//DTD SVG 20010904//EN"
 "http://www.w3.org/TR/2001/REC-SVG-20010904/DTD/svg10.dtd">
<svg version="1.0" xmlns="http://www.w3.org/2000/svg"
 width="222.000000pt" height="196.000000pt" viewBox="0 0 222.000000 196.000000"
 preserveAspectRatio="xMidYMid meet">

<g transform="translate(0.000000,196.000000) scale(0.100000,-0.100000)"
fill="#000000" stroke="none">
<path d="M925 1805 c-366 -68 -624 -344 -675 -724 -34 -246 70 -530 255 -699
221 -202 578 -267 867 -158 324 122 534 449 514 801 -20 358 -235 649 -556
753 -135 44 -267 52 -405 27z m337 -34 c284 -73 482 -268 574 -566 23 -73 26
-332 6 -405 -66 -231 -197 -406 -382 -508 -30 -17 -93 -43 -140 -58 -78 -26
-98 -28 -240 -28 -170 -1 -240 12 -356 64 -360 162 -542 588 -412 967 46 135
106 231 203 328 114 113 226 174 390 210 93 21 268 19 357 -4z"/>
<path d="M925 1564 c-33 -8 -91 -30 -129 -49 -55 -27 -73 -32 -88 -24 -46 25
-98 -25 -98 -93 0 -13 -15 -45 -34 -71 -51 -71 -85 -165 -98 -272 -16 -126 -2
-211 52 -322 101 -205 271 -310 520 -320 108 -5 120 -3 202 25 171 59 290 171
366 345 30 70 36 96 40 177 6 137 -27 272 -88 360 -9 14 -20 48 -23 77 -10 87
-45 119 -106 93 -25 -10 -35 -9 -73 13 -124 69 -310 95 -443 61z m289 -24 c74
-19 176 -65 176 -80 0 -4 -10 -15 -21 -26 -12 -10 -40 -41 -61 -69 l-40 -49
-190 2 -190 2 -28 37 c-15 21 -44 54 -64 72 -20 19 -36 38 -36 42 0 11 113 58
176 73 85 21 188 19 278 -4z m-488 -91 c30 -18 131 -129 140 -154 3 -6 79 -10
210 -10 l205 1 62 74 c35 41 80 84 100 95 l38 20 20 -24 c24 -29 25 -105 4
-206 -19 -87 -19 -125 0 -195 18 -68 21 -199 6 -265 -7 -27 -23 -86 -38 -130
-22 -70 -31 -85 -69 -114 -166 -127 -397 -147 -598 -53 -63 29 -68 35 -93 89
-45 101 -93 255 -93 299 0 48 22 170 42 229 11 35 11 49 -4 105 -22 85 -23
208 -2 238 19 27 28 27 70 1z m-101 -233 c13 -63 13 -73 -7 -145 -15 -52 -22
-106 -22 -171 -1 -87 3 -106 41 -215 l41 -120 -43 48 c-51 56 -86 115 -116
200 -44 118 -27 312 38 441 37 74 47 85 51 55 2 -13 10 -55 17 -93z m994 -66
c37 -132 23 -279 -39 -400 -27 -55 -61 -103 -66 -97 -3 3 5 38 16 78 27 95 28
237 4 337 -15 64 -16 81 -4 140 7 37 15 73 18 80 8 22 49 -58 71 -138z"/>
<path d="M1396 1259 c-17 -28 -17 -32 -3 -47 18 -18 22 -12 30 46 5 40 -4 41
-27 1z"/>
<path d="M741 1263 c1 -10 4 -28 7 -41 6 -20 9 -21 26 -9 18 13 18 15 1 40
-20 31 -35 35 -34 10z"/>
<path d="M803 1014 c-9 -23 8 -46 41 -57 34 -11 56 -3 56 22 0 40 -83 70 -97
35z m72 -23 c3 -5 1 -12 -5 -16 -5 -3 -10 1 -10 9 0 18 6 21 15 7z"/>
<path d="M1170 1017 c-16 -8 -26 -23 -28 -40 -3 -24 0 -27 25 -27 55 0 99 58
57 74 -21 8 -25 8 -54 -7z m10 -37 c0 -5 -4 -10 -10 -10 -5 0 -10 5 -10 10 0
6 5 10 10 10 6 0 10 -4 10 -10z"/>
<path d="M944 875 c-16 -24 -16 -27 1 -45 10 -11 24 -20 31 -20 23 0 25 -19 4
-40 -26 -26 -76 -26 -92 0 -15 24 -43 27 -34 4 3 -9 6 -17 6 -20 0 -8 60 -34
78 -34 11 0 31 9 46 21 l26 20 26 -20 c38 -30 94 -28 124 4 16 17 20 29 14 35
-7 7 -18 2 -34 -15 -29 -30 -49 -32 -84 -4 -32 25 -33 37 -3 48 13 5 29 16 36
25 11 13 11 20 -3 41 -14 22 -24 25 -71 25 -47 0 -57 -3 -71 -25z"/>
</g>
</svg>
