<?xml version="1.0" standalone="no"?>
<!DOCTYPE svg PUBLIC "-//W3C//DTD SVG 20010904//EN"
 "http://www.w3.org/TR/2001/REC-SVG-20010904/DTD/svg10.dtd">
<svg version="1.0" xmlns="http://www.w3.org/2000/svg"
 width="280.000000pt" height="235.000000pt" viewBox="0 0 280.000000 235.000000"
 preserveAspectRatio="xMidYMid meet">

<g transform="translate(0.000000,235.000000) scale(0.100000,-0.100000)"
fill="#000000" stroke="none">
<path d="M1455 1985 c-176 -34 -294 -94 -419 -214 -119 -115 -198 -254 -237
-418 -17 -73 -20 -110 -17 -218 4 -114 9 -142 37 -225 74 -216 202 -370 386
-463 93 -47 148 -64 258 -82 198 -32 370 -6 538 82 179 93 308 251 380 463 31
91 32 102 33 255 0 170 -6 208 -57 333 -124 304 -425 505 -750 501 -45 0 -113
-7 -152 -14z m381 -43 c399 -128 636 -548 538 -957 -89 -371 -386 -605 -769
-605 -379 0 -679 227 -776 586 -31 114 -32 290 -1 397 89 313 305 524 606 593
89 20 321 12 402 -14z"/>
<path d="M1458 1745 c-202 -49 -369 -205 -423 -394 -35 -121 -42 -264 -15
-296 5 -6 8 -20 8 -32 -3 -37 46 -143 97 -211 82 -108 193 -175 348 -208 200
-42 387 10 531 146 129 123 189 259 189 430 -1 243 -121 428 -346 530 -66 30
-165 51 -154 32 4 -5 24 -13 44 -17 21 -4 76 -24 121 -46 145 -67 258 -200
298 -352 20 -77 18 -229 -5 -304 -58 -190 -218 -345 -405 -393 -159 -40 -332
-13 -472 76 -70 44 -90 61 -129 115 -80 108 -118 217 -117 335 2 196 77 356
217 461 107 81 194 112 338 120 53 3 97 10 97 14 0 14 -159 9 -222 -6z"/>
<path d="M1367 1503 c-21 -24 -22 -42 -1 -71 10 -14 25 -22 45 -22 l29 0 0
-90 0 -90 -28 0 c-30 0 -62 -26 -62 -51 0 -29 31 -59 61 -59 l29 0 0 -90 0
-90 -29 0 c-51 0 -79 -61 -43 -93 16 -14 43 -17 165 -17 180 0 232 16 316 94
79 74 105 137 106 251 0 77 -4 98 -26 145 -32 67 -96 133 -164 168 -47 25 -59
27 -215 30 -153 3 -167 2 -183 -15z m318 -104 c27 -7 57 -29 91 -64 42 -42 54
-63 63 -105 19 -87 -6 -165 -71 -227 -39 -37 -120 -66 -174 -61 l-39 3 0 84 0
85 32 8 c58 15 58 91 0 106 l-32 8 -3 87 -3 87 48 0 c26 0 66 -5 88 -11z"/>
</g>
</svg>
